<svg width="66" height="267" viewBox="0 0 66 267" xmlns="http://www.w3.org/2000/svg" xmlns:xlink="http://www.w3.org/1999/xlink"><title>Group</title><defs><rect id="a" width="21" height="15.719" rx="2.56"/><mask id="c" x="0" y="0" width="21" height="15.719" fill="#fff"><use xlink:href="#a"/></mask><path d="M0 2.633C0 1.18 1.175 0 2.63 0h10.04c1.452 0 2.63 1.184 2.63 2.633v8.91c0 1.453-1.01 3.23-2.26 3.948 0 0-4.076 2.51-5.39 2.51s-5.39-2.51-5.39-2.51C1.013 14.765 0 12.99 0 11.543v-8.91z" id="b"/><mask id="d" x="0" y="0" width="15.3" height="18" fill="#fff"><use xlink:href="#b"/></mask></defs><g fill="none" fill-rule="evenodd"><g fill="#666"><path d="M62.202 5.494c-4.658-4.66-12.238-4.66-16.896 0l-3.112 3.11 3.19 3.19c2.328 2.33 5.388 3.494 8.448 3.494 3.06 0 6.118-1.165 8.448-3.494l3.11-3.112-3.188-3.188zm-.477 5.746c-4.352 4.352-11.435 4.352-15.788 0l-2.635-2.635 2.558-2.557c4.353-4.353 11.435-4.353 15.788 0l2.635 2.634-2.558 2.558z"/><path d="M53.51 5.43c-1.514 0-2.744 1.23-2.744 2.74 0 .218.175.393.392.393.216 0 .39-.175.39-.392 0-1.08.88-1.958 1.96-1.958.217 0 .392-.175.392-.392 0-.216-.175-.39-.39-.39z"/><path d="M54.145 3.714c-2.808 0-5.094 2.285-5.094 5.094 0 2.81 2.287 5.094 5.095 5.094 2.81 0 5.094-2.285 5.094-5.094 0-2.81-2.286-5.094-5.095-5.094zm0 9.404c-2.376 0-4.31-1.933-4.31-4.31 0-2.376 1.934-4.31 4.31-4.31 2.377 0 4.31 1.934 4.31 4.31 0 2.377-1.933 4.31-4.31 4.31z"/></g><g fill="#4C9EE6"><path d="M23.008 5.494c-4.66-4.66-12.238-4.66-16.896 0L3 8.604l3.19 3.19c2.328 2.33 5.387 3.494 8.447 3.494 3.06 0 6.12-1.165 8.45-3.494l3.11-3.112-3.19-3.188zm-.477 5.746c-4.352 4.352-11.434 4.352-15.787 0L4.108 8.605l2.558-2.557c4.353-4.353 11.435-4.353 15.788 0l2.635 2.634-2.56 2.558z"/><path d="M14.314 5.43c-1.512 0-2.743 1.23-2.743 2.74 0 .218.177.393.393.393.217 0 .392-.175.392-.392 0-1.08.88-1.958 1.96-1.958.216 0 .39-.175.39-.392 0-.216-.174-.39-.39-.39z"/><path d="M14.95 3.714c-2.808 0-5.093 2.285-5.093 5.094 0 2.81 2.285 5.094 5.094 5.094 2.81 0 5.095-2.285 5.095-5.094 0-2.81-2.285-5.094-5.094-5.094zm0 9.404c-2.375 0-4.31-1.933-4.31-4.31 0-2.376 1.935-4.31 4.31-4.31 2.378 0 4.31 1.934 4.31 4.31 0 2.377-1.932 4.31-4.31 4.31z"/></g><path d="M33 43.188l-4.773 4.773c-.052.053-.136.053-.188 0-.053-.05-.053-.135 0-.187L32.81 43l-4.773-4.773c-.053-.052-.053-.136 0-.188.05-.053.135-.053.187 0L33 42.81l4.773-4.773c.052-.053.136-.053.188 0 .053.05.053.135 0 .187L33.19 43l4.773 4.773c.053.052.053.136 0 .188-.05.053-.135.053-.187 0L33 43.19z" stroke="#CCC" stroke-width="1.875" stroke-linecap="round"/><g transform="translate(3 36)"><circle fill="#FF5523" cx="7" cy="7" r="7"/><path d="M7.085 2c-.522 0-.924.424-.9.946l.28 5.69c.014.27.254.49.523.49h.194c.275 0 .51-.22.522-.49l.28-5.69C8.01 2.424 7.61 2 7.084 2zm-.007 7.882c-.308 0-.56.098-.756.294-.224.196-.322.448-.322.756s.098.56.322.756c.196.196.448.308.756.308s.56-.098.784-.294c.196-.196.308-.462.308-.77s-.112-.56-.308-.756c-.21-.196-.476-.294-.784-.294z" fill="#FFF"/></g><path stroke="#FFF" stroke-width="2" stroke-linecap="round" d="M3 73.072l3.922 3.922L13.916 70"/><path d="M11 105.3l-7.636 7.638c-.083.083-.218.083-.302 0-.083-.084-.083-.22 0-.302L10.7 105 3.06 97.364c-.083-.083-.083-.218 0-.302.084-.083.22-.083.302 0L11 104.7l7.636-7.638c.083-.083.218-.083.302 0 .083.084.083.22 0 .302L11.3 105l7.638 7.636c.083.083.083.218 0 .302-.084.083-.22.083-.302 0L11 105.3z" stroke="#EBEBEB" stroke-width="3" stroke-linecap="round"/><path d="M47 105.3l-7.636 7.638c-.083.083-.218.083-.302 0-.083-.084-.083-.22 0-.302L46.7 105l-7.638-7.636c-.083-.083-.083-.218 0-.302.084-.083.22-.083.302 0L47 104.7l7.636-7.638c.083-.083.218-.083.302 0 .083.084.083.22 0 .302L47.3 105l7.638 7.636c.083.083.083.218 0 .302-.084.083-.22.083-.302 0L47 105.3z" stroke="#FFF" stroke-width="3" stroke-linecap="round"/><g transform="translate(2 137)"><rect fill="#F1F7F9" width="16" height="16" rx="2.625"/><path d="M9.524.38h3.843c1.243 0 2.252 1.015 2.252 2.26v2.312M9.524 15.62h3.843c1.243 0 2.252-1.016 2.252-2.26v-2.312M6.476.38H2.633C1.39.38.38 1.396.38 2.64v2.312M6.476 15.62H2.633C1.39 15.62.38 14.603.38 13.36v-2.312" stroke="#333" stroke-width=".75" stroke-linecap="round"/><circle stroke="#333" stroke-width=".75" fill="#F9C758" cx="8" cy="8" r="2.667"/><rect fill="#333" x=".762" y="7.238" width="4.952" height="1.524" rx=".75"/><rect fill="#333" x="10.286" y="7.238" width="4.952" height="1.524" rx=".75"/></g><g transform="translate(0 173)"><use stroke="#333" mask="url(#c)" stroke-width="2.133" fill="#F1F7F9" xlink:href="#a"/><ellipse stroke="#333" stroke-width="1.067" fill="#F9C758" cx="5.906" cy="5.895" rx="1.969" ry="1.965"/><path d="M9.188 11.135c0-1.81-1.47-3.275-3.282-3.275s-3.28 1.466-3.28 3.275v.652h6.562v-.652z" stroke="#333" stroke-width="1.067" fill="#F9C758"/><rect fill="#333" x="11.813" y="3.93" width="3.938" height="1.123" rx=".561"/><rect fill="#333" x="11.813" y="7.86" width="6.563" height="1.123" rx=".561"/><rect fill="#333" x="11.813" y="10.48" width="6.563" height="1.123" rx=".561"/></g><g transform="translate(3 209)"><use stroke="#333" mask="url(#d)" stroke-width="2" fill="#F1F7F9" xlink:href="#b"/><ellipse stroke="#333" stroke-width=".75" fill="#F9C758" cx="7.65" cy="8.55" rx="2.25" ry="2.25"/><rect fill="#333" x="1.8" y="8.1" width="3.6" height=".9" rx=".45"/><rect fill="#333" x="9.9" y="8.1" width="3.6" height=".9" rx=".45"/><rect fill="#333" x="7.2" y="12.6" width=".9" height="2.7" rx=".45"/><rect fill="#333" x="7.2" y="1.8" width=".9" height="2.7" rx=".45"/></g><g transform="translate(3 247)"><ellipse fill-opacity=".3" fill="#000" cx="7.391" cy="18.182" rx="7.391" ry="1.818"/><path d="M7.15 18.18c1.317.02 6.4-8.772 6.4-12.12C13.55 2.714 10.794 0 7.39 0c-3.4 0-6.158 2.713-6.158 6.06 0 3.348 4.6 12.1 5.918 12.12z" stroke="#333" fill="#F1F7F9"/><ellipse stroke="#333" fill="#F9C758" cx="7.391" cy="6.061" rx="4.312" ry="4.242"/></g></g></svg>